<?xml version="1.0" encoding="UTF-8" standalone="no"?>
<!DOCTYPE svg PUBLIC "-//W3C//DTD SVG 1.1//EN" "http://www.w3.org/Graphics/SVG/1.1/DTD/svg11.dtd">
<svg width="100%" height="100%" viewBox="0 0 254 36" version="1.1" xmlns="http://www.w3.org/2000/svg" xmlns:xlink="http://www.w3.org/1999/xlink" xml:space="preserve" xmlns:serif="http://www.serif.com/" style="fill-rule:evenodd;clip-rule:evenodd;stroke-linejoin:round;stroke-miterlimit:2;">
    <g transform="matrix(0.121545,-3.52508e-20,3.52508e-20,0.121545,-44.6163,-93.5749)">
        <path d="M1451.26,1023.64C1451.26,1014.78 1444.07,1007.59 1435.21,1007.59L1411.13,1007.59C1403.75,1007.59 1397.76,1013.59 1397.76,1020.97L1397.76,1028.55C1397.76,1046.51 1412.34,1061.09 1430.3,1061.09L1437.88,1061.09C1445.26,1061.09 1451.26,1055.1 1451.26,1047.72L1451.26,1023.64Z"/>
    </g>
    <g transform="matrix(1,0,0,1,-114.699,-629.612)">
        <text x="111.799px" y="664.779px" style="font-family:'KodeMono-Bold', 'Kode Mono', monospace;font-weight:700;font-size:50px;">RNDX</text>
    </g>
    <g transform="matrix(1,0,0,1,25.4674,-629.779)">
        <text x="111.799px" y="664.779px" style="font-family:'KodeMono-Regular', 'Kode Mono', monospace;font-size:50px;">LABS</text>
    </g>
</svg>
